# xmcd CD database file
#
# Track frame offsets:
#	150
#	15262
#	36862
#	52012
#	70242
#	86215
#	97167
#	115317
#	129442
#	144712
#	156190
#	171300
#	185372
#
# Disc length: 2568 seconds
#
# Revision: 1
# Processed by: cddbd v1.5.1PL0 Copyright (c) Steve Scherf et al.
# Submitted via: CDex 1.51
#
DISCID=b70a060d
DTITLE=Mary Flower - Blues Jubilee
DYEAR=2000
DGENRE=Blues
TTITLE0=Memphis Town
TTITLE1=Drown in My Own Tears
TTITLE2=Me and My Chauffeur Blues
TTITLE3=Six White Horses
TTITLE4=Broke Down Automobile
TTITLE5=Carroll County Shuffle
TTITLE6=Walking Blues
TTITLE7=Long-Legged Daddy
TTITLE8=Wing and a Prayer
TTITLE9=Jane Jane
TTITLE10=Fools's Paradise
TTITLE11=Michigan Water
TTITLE12=Hymn
EXTD=YEAR: 2000
EXTT0=
EXTT1=
EXTT2=
EXTT3=
EXTT4=
EXTT5=
EXTT6=
EXTT7=
EXTT8=
EXTT9=
EXTT10=
EXTT11=
EXTT12=
PLAYORDER=
